<?xml version="1.0" encoding="UTF-8" standalone="no"?> <svg id="Layer_1" data-name="Layer 1" xmlns="http://www.w3.org/2000/svg" viewBox="0 0 64 64"><circle cx="32" cy="15" r="13" fill="#adcdf7"/><circle cx="7.5" cy="50.5" r="2.5" fill="#ffc173"/><path d="M3,62V57a3,3,0,0,1,3-3H9a3,3,0,0,1,3,3v5Z" fill="#2c77d9"/><circle cx="32" cy="50.5" r="2.5" fill="#ffc173"/><path d="M27.5,62V57a3,3,0,0,1,3-3h3a3,3,0,0,1,3,3v5Z" fill="#3186f2"/><circle cx="56.5" cy="50.5" r="2.5" fill="#ffc173"/><path d="M52,62V57a3,3,0,0,1,3-3h3a3,3,0,0,1,3,3v5Z" fill="#2c77d9"/><circle cx="40.5" cy="24.5" r="3.5" fill="#f2f2f2"/><path d="M2,57v5a1,1,0,0,0,1,1h9a1,1,0,0,0,1-1V57a4,4,0,0,0-3.167-3.91,3.5,3.5,0,1,0-4.666,0A4,4,0,0,0,2,57Zm5.5-8A1.5,1.5,0,1,1,6,50.5,1.5,1.5,0,0,1,7.5,49ZM4,57a2,2,0,0,1,2-2H9a2,2,0,0,1,2,2v4H4Z"/><path d="M25,17a1,1,0,0,0,.958-.713l.633-2.11,2.97,8.165A1,1,0,0,0,30.5,23h.044a1,1,0,0,0,.922-.741L34.81,9.719l3.579,6.75a1,1,0,0,0,.883.531H42V15H39.874l-4.49-8.469a.989.989,0,0,0-1-.524,1,1,0,0,0-.853.735L30.354,18.67l-2.915-8.012a1,1,0,0,0-1.9.055L24.256,15H22v2Z"/><path d="M55.5,45h2V40.5a1,1,0,0,0-1-1H33V35.173l1.681,2.4,1.638-1.146-3.5-5a1.036,1.036,0,0,0-1.638,0l-3.5,5,1.638,1.146L31,35.173V39.5H7.5a1,1,0,0,0-1,1V45h2V41.5H31V45h2V41.5H55.5Z"/><path d="M37.5,62V57a4,4,0,0,0-3.167-3.91,3.5,3.5,0,1,0-4.666,0A4,4,0,0,0,26.5,57v5a1,1,0,0,0,1,1h9A1,1,0,0,0,37.5,62ZM32,49a1.5,1.5,0,1,1-1.5,1.5A1.5,1.5,0,0,1,32,49Zm3.5,12h-7V57a2,2,0,0,1,2-2h3a2,2,0,0,1,2,2Z"/><path d="M51,57v5a1,1,0,0,0,1,1h9a1,1,0,0,0,1-1V57a4,4,0,0,0-3.167-3.91,3.5,3.5,0,1,0-4.666,0A4,4,0,0,0,51,57Zm5.5-8A1.5,1.5,0,1,1,55,50.5,1.5,1.5,0,0,1,56.5,49ZM53,57a2,2,0,0,1,2-2h3a2,2,0,0,1,2,2v4H53Z"/><path d="M18,15A14.015,14.015,0,0,0,32,29a13.84,13.84,0,0,0,5.516-1.156,4.435,4.435,0,0,0,5.373.459l3.268,3.268a1,1,0,0,0,1.414-1.414L44.3,26.889a4.443,4.443,0,0,0-.139-4.983A13.995,13.995,0,1,0,18,15ZM42.268,26.268a2.56,2.56,0,0,1-3.536,0,2.5,2.5,0,1,1,3.536,0ZM32,3A11.984,11.984,0,0,1,42.626,20.556a4.486,4.486,0,0,0-6.3,5.624A11.868,11.868,0,0,1,32,27,12,12,0,0,1,32,3Z"/></svg>